<mxfile host="app.diagrams.net" agent="Mozilla/5.0 (Windows NT 10.0; Win64; x64) AppleWebKit/537.36 (KHTML, like Gecko) Chrome/135.0.0.0 Safari/537.36" version="26.2.14">
  <diagram name="Page-1" id="Tnl-hnfS5BPzao-A-ZHw">
    <mxGraphModel dx="2852" dy="1554" grid="1" gridSize="10" guides="1" tooltips="1" connect="1" arrows="1" fold="1" page="1" pageScale="1" pageWidth="1920" pageHeight="1080" background="#ffffff" math="0" shadow="0">
      <root>
        <mxCell id="0" />
        <mxCell id="1" parent="0" />
        <mxCell id="DYIofxekIyfTk51FCYIw-4" value="" style="rounded=1;whiteSpace=wrap;html=1;" vertex="1" parent="1">
          <mxGeometry x="430" y="100" width="460" height="1200" as="geometry" />
        </mxCell>
        <mxCell id="DYIofxekIyfTk51FCYIw-1" value="Traveler" style="shape=umlActor;verticalLabelPosition=bottom;verticalAlign=top;html=1;outlineConnect=0;" vertex="1" parent="1">
          <mxGeometry x="90" y="310" width="50" height="90" as="geometry" />
        </mxCell>
        <mxCell id="DYIofxekIyfTk51FCYIw-2" value="Flight Coordinator" style="shape=umlActor;verticalLabelPosition=bottom;verticalAlign=top;html=1;outlineConnect=0;" vertex="1" parent="1">
          <mxGeometry x="1130" y="410" width="50" height="90" as="geometry" />
        </mxCell>
        <mxCell id="DYIofxekIyfTk51FCYIw-3" value="Director&lt;div&gt;&lt;br&gt;&lt;/div&gt;" style="shape=umlActor;verticalLabelPosition=bottom;verticalAlign=top;html=1;outlineConnect=0;" vertex="1" parent="1">
          <mxGeometry x="1110" y="930" width="50" height="90" as="geometry" />
        </mxCell>
        <mxCell id="DYIofxekIyfTk51FCYIw-5" value="Schiphol Airport Dashboard System" style="text;html=1;align=center;verticalAlign=middle;resizable=0;points=[];autosize=1;strokeColor=none;fillColor=none;fontSize=21;" vertex="1" parent="1">
          <mxGeometry x="480" y="1240" width="360" height="40" as="geometry" />
        </mxCell>
        <mxCell id="DYIofxekIyfTk51FCYIw-6" value="Search for flights" style="ellipse;whiteSpace=wrap;html=1;" vertex="1" parent="1">
          <mxGeometry x="460" y="140" width="190" height="80" as="geometry" />
        </mxCell>
        <mxCell id="DYIofxekIyfTk51FCYIw-7" value="View flight details" style="ellipse;whiteSpace=wrap;html=1;" vertex="1" parent="1">
          <mxGeometry x="460" y="240" width="190" height="80" as="geometry" />
        </mxCell>
        <mxCell id="DYIofxekIyfTk51FCYIw-8" value="Select preferred seat" style="ellipse;whiteSpace=wrap;html=1;" vertex="1" parent="1">
          <mxGeometry x="460" y="350" width="190" height="80" as="geometry" />
        </mxCell>
        <mxCell id="DYIofxekIyfTk51FCYIw-9" value="Make booking" style="ellipse;whiteSpace=wrap;html=1;" vertex="1" parent="1">
          <mxGeometry x="460" y="450" width="190" height="80" as="geometry" />
        </mxCell>
        <mxCell id="DYIofxekIyfTk51FCYIw-10" value="Print booking" style="ellipse;whiteSpace=wrap;html=1;" vertex="1" parent="1">
          <mxGeometry x="460" y="550" width="190" height="80" as="geometry" />
        </mxCell>
        <mxCell id="DYIofxekIyfTk51FCYIw-13" value="Receive email confirmation" style="ellipse;whiteSpace=wrap;html=1;" vertex="1" parent="1">
          <mxGeometry x="460" y="650" width="190" height="80" as="geometry" />
        </mxCell>
        <mxCell id="DYIofxekIyfTk51FCYIw-15" value="" style="endArrow=none;html=1;rounded=0;entryX=0;entryY=0.5;entryDx=0;entryDy=0;" edge="1" parent="1" source="DYIofxekIyfTk51FCYIw-1" target="DYIofxekIyfTk51FCYIw-6">
          <mxGeometry width="50" height="50" relative="1" as="geometry">
            <mxPoint x="280" y="310" as="sourcePoint" />
            <mxPoint x="330" y="260" as="targetPoint" />
          </mxGeometry>
        </mxCell>
        <mxCell id="DYIofxekIyfTk51FCYIw-16" value="" style="endArrow=none;html=1;rounded=0;entryX=0;entryY=0.5;entryDx=0;entryDy=0;" edge="1" parent="1" source="DYIofxekIyfTk51FCYIw-1" target="DYIofxekIyfTk51FCYIw-7">
          <mxGeometry width="50" height="50" relative="1" as="geometry">
            <mxPoint x="150" y="305" as="sourcePoint" />
            <mxPoint x="470" y="190" as="targetPoint" />
          </mxGeometry>
        </mxCell>
        <mxCell id="DYIofxekIyfTk51FCYIw-17" value="" style="endArrow=none;html=1;rounded=0;entryX=0;entryY=0.5;entryDx=0;entryDy=0;" edge="1" parent="1" source="DYIofxekIyfTk51FCYIw-1" target="DYIofxekIyfTk51FCYIw-8">
          <mxGeometry width="50" height="50" relative="1" as="geometry">
            <mxPoint x="160" y="315" as="sourcePoint" />
            <mxPoint x="480" y="200" as="targetPoint" />
          </mxGeometry>
        </mxCell>
        <mxCell id="DYIofxekIyfTk51FCYIw-18" value="" style="endArrow=none;html=1;rounded=0;entryX=0;entryY=0.5;entryDx=0;entryDy=0;" edge="1" parent="1" source="DYIofxekIyfTk51FCYIw-1" target="DYIofxekIyfTk51FCYIw-9">
          <mxGeometry width="50" height="50" relative="1" as="geometry">
            <mxPoint x="170" y="325" as="sourcePoint" />
            <mxPoint x="490" y="210" as="targetPoint" />
          </mxGeometry>
        </mxCell>
        <mxCell id="DYIofxekIyfTk51FCYIw-19" value="" style="endArrow=none;html=1;rounded=0;entryX=0;entryY=0.5;entryDx=0;entryDy=0;" edge="1" parent="1" source="DYIofxekIyfTk51FCYIw-1" target="DYIofxekIyfTk51FCYIw-10">
          <mxGeometry width="50" height="50" relative="1" as="geometry">
            <mxPoint x="180" y="335" as="sourcePoint" />
            <mxPoint x="500" y="220" as="targetPoint" />
          </mxGeometry>
        </mxCell>
        <mxCell id="DYIofxekIyfTk51FCYIw-20" value="" style="endArrow=none;html=1;rounded=0;entryX=0;entryY=0.5;entryDx=0;entryDy=0;" edge="1" parent="1" source="DYIofxekIyfTk51FCYIw-1" target="DYIofxekIyfTk51FCYIw-13">
          <mxGeometry width="50" height="50" relative="1" as="geometry">
            <mxPoint x="190" y="345" as="sourcePoint" />
            <mxPoint x="510" y="230" as="targetPoint" />
          </mxGeometry>
        </mxCell>
        <mxCell id="DYIofxekIyfTk51FCYIw-22" value="View schedule" style="ellipse;whiteSpace=wrap;html=1;" vertex="1" parent="1">
          <mxGeometry x="680" y="140" width="190" height="80" as="geometry" />
        </mxCell>
        <mxCell id="DYIofxekIyfTk51FCYIw-24" value="Login securely" style="ellipse;whiteSpace=wrap;html=1;" vertex="1" parent="1">
          <mxGeometry x="680" y="240" width="190" height="80" as="geometry" />
        </mxCell>
        <mxCell id="DYIofxekIyfTk51FCYIw-25" value="Manage airlines &amp;amp; schedules" style="ellipse;whiteSpace=wrap;html=1;" vertex="1" parent="1">
          <mxGeometry x="680" y="350" width="190" height="80" as="geometry" />
        </mxCell>
        <mxCell id="DYIofxekIyfTk51FCYIw-26" value="Assign gates" style="ellipse;whiteSpace=wrap;html=1;" vertex="1" parent="1">
          <mxGeometry x="680" y="450" width="190" height="80" as="geometry" />
        </mxCell>
        <mxCell id="DYIofxekIyfTk51FCYIw-27" value="Add/edit/delete flights" style="ellipse;whiteSpace=wrap;html=1;" vertex="1" parent="1">
          <mxGeometry x="680" y="550" width="190" height="80" as="geometry" />
        </mxCell>
        <mxCell id="DYIofxekIyfTk51FCYIw-28" value="Manage logos" style="ellipse;whiteSpace=wrap;html=1;" vertex="1" parent="1">
          <mxGeometry x="680" y="650" width="190" height="80" as="geometry" />
        </mxCell>
        <mxCell id="DYIofxekIyfTk51FCYIw-29" value="" style="endArrow=none;html=1;rounded=0;exitX=1;exitY=0.5;exitDx=0;exitDy=0;" edge="1" parent="1" source="DYIofxekIyfTk51FCYIw-22" target="DYIofxekIyfTk51FCYIw-2">
          <mxGeometry width="50" height="50" relative="1" as="geometry">
            <mxPoint x="930" y="300" as="sourcePoint" />
            <mxPoint x="980" y="250" as="targetPoint" />
          </mxGeometry>
        </mxCell>
        <mxCell id="DYIofxekIyfTk51FCYIw-30" value="" style="endArrow=none;html=1;rounded=0;exitX=1;exitY=0.5;exitDx=0;exitDy=0;" edge="1" parent="1" source="DYIofxekIyfTk51FCYIw-24" target="DYIofxekIyfTk51FCYIw-2">
          <mxGeometry width="50" height="50" relative="1" as="geometry">
            <mxPoint x="880" y="190" as="sourcePoint" />
            <mxPoint x="1060" y="301" as="targetPoint" />
          </mxGeometry>
        </mxCell>
        <mxCell id="DYIofxekIyfTk51FCYIw-31" value="" style="endArrow=none;html=1;rounded=0;exitX=1;exitY=0.5;exitDx=0;exitDy=0;" edge="1" parent="1" source="DYIofxekIyfTk51FCYIw-25" target="DYIofxekIyfTk51FCYIw-2">
          <mxGeometry width="50" height="50" relative="1" as="geometry">
            <mxPoint x="890" y="200" as="sourcePoint" />
            <mxPoint x="1070" y="311" as="targetPoint" />
          </mxGeometry>
        </mxCell>
        <mxCell id="DYIofxekIyfTk51FCYIw-32" value="" style="endArrow=none;html=1;rounded=0;exitX=1;exitY=0.5;exitDx=0;exitDy=0;" edge="1" parent="1" source="DYIofxekIyfTk51FCYIw-26" target="DYIofxekIyfTk51FCYIw-2">
          <mxGeometry width="50" height="50" relative="1" as="geometry">
            <mxPoint x="900" y="210" as="sourcePoint" />
            <mxPoint x="1080" y="321" as="targetPoint" />
          </mxGeometry>
        </mxCell>
        <mxCell id="DYIofxekIyfTk51FCYIw-33" value="" style="endArrow=none;html=1;rounded=0;exitX=1;exitY=0.5;exitDx=0;exitDy=0;" edge="1" parent="1" source="DYIofxekIyfTk51FCYIw-27" target="DYIofxekIyfTk51FCYIw-2">
          <mxGeometry width="50" height="50" relative="1" as="geometry">
            <mxPoint x="910" y="220" as="sourcePoint" />
            <mxPoint x="1090" y="331" as="targetPoint" />
          </mxGeometry>
        </mxCell>
        <mxCell id="DYIofxekIyfTk51FCYIw-34" value="" style="endArrow=none;html=1;rounded=0;exitX=1;exitY=0.5;exitDx=0;exitDy=0;" edge="1" parent="1" source="DYIofxekIyfTk51FCYIw-28" target="DYIofxekIyfTk51FCYIw-2">
          <mxGeometry width="50" height="50" relative="1" as="geometry">
            <mxPoint x="920" y="230" as="sourcePoint" />
            <mxPoint x="1100" y="341" as="targetPoint" />
          </mxGeometry>
        </mxCell>
        <mxCell id="DYIofxekIyfTk51FCYIw-37" value="Login securely" style="ellipse;whiteSpace=wrap;html=1;" vertex="1" parent="1">
          <mxGeometry x="565" y="760" width="190" height="80" as="geometry" />
        </mxCell>
        <mxCell id="DYIofxekIyfTk51FCYIw-38" value="View coordinators" style="ellipse;whiteSpace=wrap;html=1;" vertex="1" parent="1">
          <mxGeometry x="565" y="860" width="190" height="80" as="geometry" />
        </mxCell>
        <mxCell id="DYIofxekIyfTk51FCYIw-39" value="Manage coordinators" style="ellipse;whiteSpace=wrap;html=1;" vertex="1" parent="1">
          <mxGeometry x="565" y="960" width="190" height="80" as="geometry" />
        </mxCell>
        <mxCell id="DYIofxekIyfTk51FCYIw-40" value="View bookings" style="ellipse;whiteSpace=wrap;html=1;" vertex="1" parent="1">
          <mxGeometry x="560" y="1070" width="190" height="80" as="geometry" />
        </mxCell>
        <mxCell id="DYIofxekIyfTk51FCYIw-41" value="" style="endArrow=none;html=1;rounded=0;exitX=1;exitY=0.5;exitDx=0;exitDy=0;" edge="1" parent="1" source="DYIofxekIyfTk51FCYIw-37" target="DYIofxekIyfTk51FCYIw-3">
          <mxGeometry width="50" height="50" relative="1" as="geometry">
            <mxPoint x="1040" y="930" as="sourcePoint" />
            <mxPoint x="1090" y="880" as="targetPoint" />
          </mxGeometry>
        </mxCell>
        <mxCell id="DYIofxekIyfTk51FCYIw-42" value="" style="endArrow=none;html=1;rounded=0;exitX=1;exitY=0.5;exitDx=0;exitDy=0;" edge="1" parent="1" source="DYIofxekIyfTk51FCYIw-38" target="DYIofxekIyfTk51FCYIw-3">
          <mxGeometry width="50" height="50" relative="1" as="geometry">
            <mxPoint x="765" y="810" as="sourcePoint" />
            <mxPoint x="1070" y="990" as="targetPoint" />
          </mxGeometry>
        </mxCell>
        <mxCell id="DYIofxekIyfTk51FCYIw-43" value="" style="endArrow=none;html=1;rounded=0;exitX=1;exitY=0.5;exitDx=0;exitDy=0;" edge="1" parent="1" source="DYIofxekIyfTk51FCYIw-39" target="DYIofxekIyfTk51FCYIw-3">
          <mxGeometry width="50" height="50" relative="1" as="geometry">
            <mxPoint x="775" y="820" as="sourcePoint" />
            <mxPoint x="1130" y="974" as="targetPoint" />
          </mxGeometry>
        </mxCell>
        <mxCell id="DYIofxekIyfTk51FCYIw-44" value="" style="endArrow=none;html=1;rounded=0;exitX=1;exitY=0.5;exitDx=0;exitDy=0;" edge="1" parent="1" source="DYIofxekIyfTk51FCYIw-40" target="DYIofxekIyfTk51FCYIw-3">
          <mxGeometry width="50" height="50" relative="1" as="geometry">
            <mxPoint x="785" y="830" as="sourcePoint" />
            <mxPoint x="1140" y="984" as="targetPoint" />
          </mxGeometry>
        </mxCell>
      </root>
    </mxGraphModel>
  </diagram>
</mxfile>
